<svg width="16" height="16" viewBox="0 0 16 16" fill="none" xmlns="http://www.w3.org/2000/svg">
<g id="calendar" clip-path="url(#clip0_36_657)">
<g id="Group">
<path id="Vector" d="M11.3338 1.99935H14.0005C14.1773 1.99935 14.3469 2.06959 14.4719 2.19461C14.5969 2.31964 14.6671 2.4892 14.6671 2.66602V13.3327C14.6671 13.5095 14.5969 13.6791 14.4719 13.8041C14.3469 13.9291 14.1773 13.9993 14.0005 13.9993H2.00048C1.82366 13.9993 1.6541 13.9291 1.52907 13.8041C1.40405 13.6791 1.33381 13.5095 1.33381 13.3327V2.66602C1.33381 2.4892 1.40405 2.31964 1.52907 2.19461C1.6541 2.06959 1.82366 1.99935 2.00048 1.99935H4.66714V0.666016H6.00048V1.99935H10.0005V0.666016H11.3338V1.99935ZM13.3338 5.99935V3.33268H11.3338V4.66602H10.0005V3.33268H6.00048V4.66602H4.66714V3.33268H2.66714V5.99935H13.3338ZM13.3338 7.33268H2.66714V12.666H13.3338V7.33268ZM4.00048 8.66602H7.33381V11.3327H4.00048V8.66602Z" fill="#999999"/>
</g>
</g>
<defs>
<clipPath id="clip0_36_657">
<rect width="16" height="16" fill="white"/>
</clipPath>
</defs>
</svg>
