<svg width="18" height="18" viewBox="0 0 18 18" fill="none" xmlns="http://www.w3.org/2000/svg">
<path fill-rule="evenodd" clip-rule="evenodd" d="M11.7015 3.9375H6.29845C5.42661 2.75986 6.6012 1.1117 8.06026 1.58239L8.75608 1.80686C8.91451 1.85796 9.0854 1.85796 9.24382 1.80686L9.93965 1.58239C11.3987 1.1117 12.5733 2.75986 11.7015 3.9375ZM6.37958 5.0625H11.6203C12.6098 5.61036 13.3828 6.52509 13.7368 7.65776L14.6743 10.6578C15.5798 13.5555 13.415 16.5 10.3791 16.5H7.62081C4.58493 16.5 2.42013 13.5555 3.32565 10.6578L4.26315 7.65776C4.61711 6.52509 5.39012 5.61036 6.37958 5.0625ZM9.49494 7.12487C9.49494 6.8516 9.27342 6.63008 9.00015 6.63008C8.72689 6.63008 8.50536 6.8516 8.50536 7.12487V7.81233C7.67725 8.00623 7.00536 8.67586 7.00536 9.56237C7.00536 10.6205 7.96259 11.3697 9.00015 11.3697C9.61944 11.3697 10.0054 11.7958 10.0054 12.1874C10.0054 12.579 9.61944 13.0051 9.00015 13.0051C8.38086 13.0051 7.99494 12.579 7.99494 12.1874C7.99494 11.9141 7.77342 11.6926 7.50015 11.6926C7.22689 11.6926 7.00536 11.9141 7.00536 12.1874C7.00536 13.0739 7.67725 13.7435 8.50536 13.9374V14.6249C8.50536 14.8981 8.72689 15.1197 9.00015 15.1197C9.27342 15.1197 9.49494 14.8981 9.49494 14.6249V13.9374C10.3231 13.7435 10.9949 13.0739 10.9949 12.1874C10.9949 11.1292 10.0377 10.3801 9.00015 10.3801C8.38086 10.3801 7.99494 9.95398 7.99494 9.56237C7.99494 9.17076 8.38086 8.74466 9.00015 8.74466C9.61944 8.74466 10.0054 9.17076 10.0054 9.56237C10.0054 9.83564 10.2269 10.0572 10.5002 10.0572C10.7734 10.0572 10.9949 9.83564 10.9949 9.56237C10.9949 8.67586 10.3231 8.00623 9.49494 7.81233V7.12487Z" fill="#37BD6B"/>
</svg>
