<svg width="16" height="16" viewBox="0 0 16 16" fill="none" xmlns="http://www.w3.org/2000/svg">
<g id="material-symbols:check-circle-outline">
<path id="Vector" d="M7.06665 11.0667L11.7666 6.36671L10.8333 5.43337L7.06665 9.20004L5.16665 7.30004L4.23331 8.23337L7.06665 11.0667ZM7.99998 14.6667C7.07776 14.6667 6.21109 14.4916 5.39998 14.1414C4.58887 13.7912 3.88331 13.3163 3.28331 12.7167C2.68331 12.1167 2.20842 11.4112 1.85865 10.6C1.50887 9.78893 1.33376 8.92226 1.33331 8.00004C1.33331 7.07782 1.50842 6.21115 1.85865 5.40004C2.20887 4.58893 2.68376 3.88337 3.28331 3.28337C3.88331 2.68337 4.58887 2.20849 5.39998 1.85871C6.21109 1.50893 7.07776 1.33382 7.99998 1.33337C8.9222 1.33337 9.78887 1.50849 10.6 1.85871C11.4111 2.20893 12.1166 2.68382 12.7166 3.28337C13.3166 3.88337 13.7918 4.58893 14.142 5.40004C14.4922 6.21115 14.6671 7.07782 14.6666 8.00004C14.6666 8.92226 14.4915 9.78893 14.1413 10.6C13.7911 11.4112 13.3162 12.1167 12.7166 12.7167C12.1166 13.3167 11.4111 13.7918 10.6 14.142C9.78887 14.4923 8.9222 14.6672 7.99998 14.6667ZM7.99998 13.3334C9.48887 13.3334 10.75 12.8167 11.7833 11.7834C12.8166 10.75 13.3333 9.48893 13.3333 8.00004C13.3333 6.51115 12.8166 5.25004 11.7833 4.21671C10.75 3.18337 9.48887 2.66671 7.99998 2.66671C6.51109 2.66671 5.24998 3.18337 4.21665 4.21671C3.18331 5.25004 2.66665 6.51115 2.66665 8.00004C2.66665 9.48893 3.18331 10.75 4.21665 11.7834C5.24998 12.8167 6.51109 13.3334 7.99998 13.3334Z" fill="#13C1B7"/>
</g>
</svg>
