<svg width="18" height="18" viewBox="0 0 18 18" fill="none" xmlns="http://www.w3.org/2000/svg">
    <path d="M9.9 9.0002L16.7625 2.1377C17.0156 1.88457 17.0156 1.49082 16.7625 1.2377C16.5094 0.98457 16.1156 0.98457 15.8625 1.2377L9 8.10019L2.1375 1.2377C1.88437 0.98457 1.49062 0.98457 1.2375 1.2377C0.984372 1.49082 0.984372 1.88457 1.2375 2.1377L8.1 9.0002L1.2375 15.8627C0.984372 16.1158 0.984372 16.5096 1.2375 16.7627C1.35 16.8752 1.51875 16.9596 1.6875 16.9596C1.85625 16.9596 2.025 16.9033 2.1375 16.7627L9 9.9002L15.8625 16.7627C15.975 16.8752 16.1437 16.9596 16.3125 16.9596C16.4812 16.9596 16.65 16.9033 16.7625 16.7627C17.0156 16.5096 17.0156 16.1158 16.7625 15.8627L9.9 9.0002Z" fill="#797979"/>
</svg>
