<svg width="24" height="24" viewBox="0 0 24 24" fill="none" xmlns="http://www.w3.org/2000/svg">
    <path fill-rule="evenodd" clip-rule="evenodd"
        d="M12.4802 2.02247C17.9974 2.28748 22.2552 6.97492 21.9902 12.4922C21.2424 20.4666 13.2683 22.1394 9.37473 21.979C7.51255 21.9601 5.06588 21.908 3.44196 21.8127C2.93339 21.7829 2.68079 21.2089 2.98724 20.8019L3.91389 19.5714C4.29332 19.0675 4.25453 18.3705 3.88548 17.859C2.60683 16.0867 1.89751 13.885 2.01051 11.5325C2.27552 6.01524 6.96296 1.75746 12.4802 2.02247ZM6.80469 10.1683C6.80469 9.62232 7.24726 9.17974 7.79321 9.17974H15.7077C16.2537 9.17974 16.6962 9.62232 16.6962 10.1683C16.6962 10.7142 16.2537 11.1568 15.7077 11.1568H7.79321C7.24726 11.1568 6.80469 10.7142 6.80469 10.1683ZM6.8052 14.0613C6.80293 13.5154 7.24366 13.071 7.7896 13.0687L13.324 13.0457C13.8699 13.0434 14.3143 13.4842 14.3166 14.0301C14.3188 14.5761 13.8781 15.0205 13.3322 15.0227L7.79782 15.0457C7.25188 15.048 6.80747 14.6073 6.8052 14.0613Z"
        fill="#6A6D7C" />
</svg>
