<svg width="24" height="24" viewBox="0 0 24 24" fill="none" xmlns="http://www.w3.org/2000/svg">
<g opacity="0.7">
<path fill-rule="evenodd" clip-rule="evenodd" d="M9.25018 4.75C9.25018 3.23122 10.4814 2 12.0002 2C13.519 2 14.7502 3.23122 14.7502 4.75V4.91565C17.1352 5.2059 19.3632 5.86798 21.3287 6.8258C21.7011 7.00725 21.8558 7.4562 21.6744 7.82855C21.4929 8.20091 21.044 8.35566 20.6716 8.1742C18.18 6.95998 15.2044 6.25 12.0002 6.25C8.79591 6.25 5.82036 6.95998 3.32872 8.1742C2.95637 8.35566 2.50742 8.20091 2.32597 7.82855C2.14451 7.4562 2.29926 7.00725 2.67162 6.8258C4.6371 5.86797 6.8652 5.2059 9.25018 4.91565V4.75ZM18.2656 18.283C18.1161 20.3763 16.3743 21.998 14.2757 21.998H9.72469C7.62613 21.998 5.88437 20.3763 5.73485 18.283L5.04663 8.6479C7.16395 7.90959 9.51894 7.49805 12.0002 7.49805C14.4815 7.49805 16.8365 7.90959 18.9538 8.6479L18.2656 18.283ZM10.7502 10.998C10.7502 10.5838 10.4144 10.248 10.0002 10.248C9.586 10.248 9.25021 10.5838 9.25021 10.998V16.998C9.25021 17.4123 9.586 17.748 10.0002 17.748C10.4144 17.748 10.7502 17.4123 10.7502 16.998V10.998ZM14.0002 10.248C14.4144 10.248 14.7502 10.5838 14.7502 10.998V16.998C14.7502 17.4123 14.4144 17.748 14.0002 17.748C13.586 17.748 13.2502 17.4123 13.2502 16.998V10.998C13.2502 10.5838 13.586 10.248 14.0002 10.248Z" fill="#6A6D7C"/>
</g>
</svg>
