<svg width="24" height="25" viewBox="0 0 24 25" fill="none" xmlns="http://www.w3.org/2000/svg">
<path fill-rule="evenodd" clip-rule="evenodd" d="M12 0.620117C18.6274 0.620117 24 5.9927 24 12.6201C24 19.2475 18.6274 24.6201 12 24.6201C5.37258 24.6201 0 19.2475 0 12.6201C0 5.9927 5.37258 0.620117 12 0.620117ZM16.7118 16.3397C15.518 17.8687 13.9759 18.6143 12 18.6143C10.0241 18.6143 8.48207 17.8687 7.28825 16.3397C6.94837 15.9044 6.31995 15.827 5.88463 16.1669C5.44932 16.5068 5.37196 17.1352 5.71184 17.5705C7.28632 19.5871 9.41091 20.6143 12 20.6143C14.5892 20.6143 16.7138 19.5871 18.2882 17.5705C18.6281 17.1352 18.5508 16.5068 18.1155 16.1669C17.6801 15.827 17.0517 15.9044 16.7118 16.3397ZM8 8.62012C7.17157 8.62012 6.5 9.51555 6.5 10.6201C6.5 11.7247 7.17157 12.6201 8 12.6201C8.82843 12.6201 9.5 11.7247 9.5 10.6201C9.5 9.51555 8.82843 8.62012 8 8.62012ZM16 8.62012C15.1716 8.62012 14.5 9.51555 14.5 10.6201C14.5 11.7247 15.1716 12.6201 16 12.6201C16.8284 12.6201 17.5 11.7247 17.5 10.6201C17.5 9.51555 16.8284 8.62012 16 8.62012Z" fill="#6A6D7C"/>
</svg>
