<svg width="66" height="66" viewBox="0 0 66 66" fill="none" xmlns="http://www.w3.org/2000/svg">
<g clip-path="url(#clip0_6509_31043)">
<path d="M3.07708 21.0985C3.1647 21.1086 3.24982 21.1123 3.3362 21.1123C4.53542 21.1123 5.56565 20.2085 5.69834 18.9905C5.84104 17.6786 6.01254 16.4218 6.22409 15.1488C6.58836 13.1071 7.71123 11.0604 9.38863 9.38298C11.066 7.70683 13.114 6.58397 15.1582 6.2197C16.4337 6.00814 17.6905 5.83665 19.0024 5.69394C20.308 5.55249 21.2532 4.37956 21.1117 3.07518C20.9702 1.76956 19.7973 0.825706 18.4904 0.967159C17.0834 1.11863 15.734 1.30389 14.3658 1.53172L14.342 1.53547C8.13684 2.6333 2.63269 8.13369 1.53612 14.3338L1.53236 14.3576C1.30453 15.7246 1.12052 17.0728 0.9678 18.4798C0.826347 19.7854 1.7702 20.9571 3.07708 21.0985Z" fill="#37BD6B"/>
<path d="M65.0322 18.5015C64.8795 17.0957 64.6955 15.7463 64.4676 14.3793L64.4639 14.3555C63.3673 8.15664 57.8632 2.65499 51.6605 1.55967L51.6367 1.55592C50.266 1.32809 48.9166 1.14407 47.5121 0.991356C46.2052 0.851155 45.0323 1.79376 44.8908 3.09938C44.7494 4.405 45.6932 5.57668 47.0001 5.71814C48.3107 5.85959 49.5675 6.03234 50.8443 6.24389C52.8873 6.60816 54.9365 7.73103 56.6139 9.40718C58.2913 11.0833 59.4154 13.1313 59.7784 15.173C59.99 16.446 60.1615 17.7028 60.3042 19.0147C60.4356 20.2327 61.4671 21.1365 62.6663 21.1365C62.7514 21.1365 62.8378 21.1315 62.9254 21.1227C64.2311 20.9813 65.1749 19.8084 65.0347 18.504L65.0322 18.5015Z" fill="#37BD6B"/>
<path d="M64.4676 51.6427C64.6955 50.2757 64.8795 48.9263 65.0322 47.5205C65.1737 46.2149 64.2298 45.0432 62.9229 44.9017C61.6186 44.7603 60.4431 45.7041 60.3017 47.0098C60.1602 48.3216 59.9875 49.5784 59.7759 50.8515C59.4116 52.8932 58.2888 54.9399 56.6114 56.6173C54.934 58.2934 52.8848 59.4176 50.8418 59.7806C49.5688 59.9921 48.312 60.1636 46.9988 60.3063C45.6932 60.4478 44.7494 61.6207 44.8908 62.9251C45.0222 64.1431 46.0537 65.0469 47.2529 65.0469C47.3381 65.0469 47.4244 65.0419 47.5121 65.0331C48.9203 64.8804 50.2698 64.6964 51.6367 64.4686L51.6605 64.4648C57.8644 63.3695 63.3686 57.8678 64.4639 51.6689L64.4676 51.6452V51.6427Z" fill="#37BD6B"/>
<path d="M1.53234 51.6207L1.5361 51.6445C2.63267 57.8434 8.13682 63.3451 14.3395 64.4404L14.3633 64.4441C15.7302 64.672 17.0796 64.856 18.4879 65.0087C18.5755 65.0187 18.6619 65.0225 18.747 65.0225C19.9463 65.0225 20.9765 64.1199 21.1092 62.9007C21.2506 61.595 20.3068 60.4234 19.0012 60.2819C17.688 60.1392 16.43 59.9677 15.1569 59.7562C13.114 59.3919 11.066 58.269 9.38736 56.5929C7.70996 54.9167 6.58584 52.8688 6.22282 50.8271C6.01127 49.554 5.83977 48.2972 5.69707 46.9853C5.55562 45.6797 4.38143 44.7359 3.07581 44.8773C1.77019 45.0188 0.82508 46.1917 0.966533 47.4961C1.11925 48.9031 1.30327 50.2513 1.53109 51.6182L1.53234 51.6207Z" fill="#37BD6B"/>
<path d="M21.5748 45.0853C24.9422 47.6665 28.9755 48.9571 33.0075 48.9571C37.0395 48.9571 41.0728 47.6652 44.4364 45.084C45.4779 44.2841 45.6744 42.792 44.8733 41.7505C44.0734 40.709 42.58 40.5137 41.5385 41.3136C36.5175 45.1679 29.4987 45.1679 24.4702 41.3136C23.4275 40.515 21.9354 40.7115 21.1355 41.753C20.3356 42.7945 20.5321 44.2866 21.5748 45.0853Z" fill="#37BD6B"/>
<path d="M23.9645 23.4802V20.009C23.9645 18.6959 22.8992 17.6318 21.5861 17.6318C20.273 17.6318 19.2077 18.6959 19.2077 20.009V23.4802C19.2077 24.7934 20.273 25.8574 21.5861 25.8574C22.8992 25.8574 23.9645 24.7934 23.9645 23.4802Z" fill="#37BD6B"/>
<path d="M46.7923 23.4802V20.009C46.7923 18.6959 45.727 17.6318 44.4139 17.6318C43.1007 17.6318 42.0355 18.6959 42.0355 20.009V23.4802C42.0355 24.7934 43.1007 25.8574 44.4139 25.8574C45.727 25.8574 46.7923 24.7934 46.7923 23.4802Z" fill="#37BD6B"/>
<path d="M31.2475 36.0468C31.7169 36.5576 32.3578 36.8167 33 36.8167C33.5746 36.8167 34.1504 36.6102 34.6073 36.1908L37.504 33.5345C38.2575 32.8422 38.4854 31.7469 38.0673 30.8131L35.1706 24.3375C34.6348 23.1396 33.2278 22.6013 32.0286 23.1371C30.8294 23.6728 30.2924 25.0786 30.8281 26.2778L33.025 31.1899L31.3902 32.6883C30.4225 33.5758 30.3575 35.0792 31.2462 36.0468H31.2475Z" fill="#37BD6B"/>
</g>
<defs>
<clipPath id="clip0_6509_31043">
<rect width="64.0919" height="64.0919" fill="white" transform="translate(0.95401 0.954102)"/>
</clipPath>
</defs>
</svg>
