<svg width="22" height="23" viewBox="0 0 22 23" fill="none" xmlns="http://www.w3.org/2000/svg">
<path fill-rule="evenodd" clip-rule="evenodd" d="M18 0.620117C20.2091 0.620117 22 2.41098 22 4.62012V18.6201C22 20.8293 20.2091 22.6201 18 22.6201H4C1.79086 22.6201 0 20.8293 0 18.6201V4.62012C0 2.41098 1.79086 0.620117 4 0.620117H18ZM18 2.62012H4C2.89543 2.62012 2 3.51555 2 4.62012V15.0856C2 15.196 2.08954 15.2856 2.2 15.2856C2.23122 15.2856 2.26201 15.2783 2.2899 15.2642L8.3036 12.2381C9.9999 11.3842 12.0003 11.3838 13.697 12.237L19.7102 15.2604C19.8088 15.31 19.9291 15.2702 19.9787 15.1715C19.9927 15.1437 20 15.1129 20 15.0817V4.62012C20 3.51555 19.1046 2.62012 18 2.62012ZM6.5 4.62012C7.88071 4.62012 9 5.73941 9 7.12012C9 8.50083 7.88071 9.62012 6.5 9.62012C5.11929 9.62012 4 8.50083 4 7.12012C4 5.73941 5.11929 4.62012 6.5 4.62012Z" fill="#6A6D7C"/>
</svg>
