<svg width="25" height="24" viewBox="0 0 25 24" fill="none" xmlns="http://www.w3.org/2000/svg">
<path fill-rule="evenodd" clip-rule="evenodd" d="M17.417 6.90499C17.417 8.63549 16.987 10.8925 16.3255 10.55C16.055 11.4333 15.4871 12.1959 14.7183 12.708C13.9494 13.2202 13.027 13.4505 12.1076 13.3598C11.1882 13.2691 10.3285 12.863 9.67459 12.2105C9.02063 11.5579 8.61268 10.6992 8.52 9.77999C7.8635 8.63149 7.0025 6.32999 9.216 4.53599C9.256 4.52299 9.28 4.41499 9.316 4.25599C9.453 3.65449 9.7565 2.31749 11.671 2.57299C13.1475 2.76949 17.417 3.53149 17.417 6.90499ZM15.514 7.99599C15.514 7.99599 15.288 8.65699 15.5 9.39349C15.4972 10.1788 15.1867 10.9317 14.635 11.4905C14.0833 12.0494 13.3345 12.3697 12.5493 12.3826C11.7641 12.3955 11.0051 12.1 10.4354 11.5595C9.86566 11.0191 9.53054 10.2768 9.502 9.49199C9.5745 9.21699 9.5745 8.75149 9.574 8.23399C9.5735 7.30049 9.5725 6.19899 10 5.74999C12.9945 7.74449 15.514 7.99599 15.514 7.99599Z" fill="#38A34B"/>
<path d="M7 18C7 17.459 7.2865 16.985 7.7165 16.721C7.70013 16.6587 7.68479 16.5962 7.6705 16.5335C7.59463 16.1919 7.53539 15.8468 7.493 15.4995C7.45004 15.1667 7.42417 14.8319 7.4155 14.4965C5.305 15.325 3.5 16.769 3.5 18.285V21H21.5V18.285C21.5 16.833 19.845 15.4475 17.851 14.605V14.619C17.86 14.924 17.843 15.274 17.81 15.6105C17.78 15.9225 17.7355 16.2335 17.682 16.5H18C18.0928 16.5 18.1838 16.5259 18.2628 16.5748C18.3417 16.6236 18.4055 16.6934 18.447 16.7765L18.947 17.7765C18.982 17.846 19 17.9225 19 18V19C19 19.1326 18.9473 19.2598 18.8536 19.3535C18.7598 19.4473 18.6326 19.5 18.5 19.5H17.5V18.5H18V18.118L17.691 17.5H16.309L16 18.118V18.5H16.5V19.5H15.5C15.3674 19.5 15.2402 19.4473 15.1464 19.3535C15.0527 19.2598 15 19.1326 15 19V18C15 17.9225 15.018 17.846 15.053 17.7765L15.553 16.7765C15.5945 16.6934 15.6583 16.6236 15.7372 16.5748C15.8162 16.5259 15.9072 16.5 16 16.5H16.6575C16.6685 16.457 16.6795 16.4095 16.6905 16.357C16.7405 16.1215 16.785 15.823 16.815 15.5145C16.845 15.2055 16.859 14.899 16.8515 14.647C16.8496 14.5426 16.8414 14.4384 16.827 14.335C16.816 14.264 16.805 14.2315 16.803 14.2245C16.8025 14.223 16.802 14.2225 16.803 14.2235L16.8045 14.223C16.5392 14.1406 16.2708 14.0683 16 14.0065C15.7485 13.949 15.4885 14.295 15.375 14.5115H9.5C9.4854 14.4836 9.47107 14.4556 9.457 14.4275C9.351 14.2165 9.2205 13.956 9 14.0065C8.8075 14.05 8.615 14.1 8.4225 14.155C8.4163 14.2427 8.41363 14.3306 8.4145 14.4185C8.4165 14.695 8.443 15.0335 8.4855 15.3755C8.528 15.7165 8.5855 16.0485 8.6455 16.3105C8.6625 16.386 8.6795 16.454 8.6955 16.5125C8.98136 16.5501 9.25033 16.6692 9.47021 16.8557C9.6901 17.0422 9.85158 17.2881 9.93533 17.564C10.0191 17.8399 10.0215 18.134 9.94242 18.4113C9.86331 18.6885 9.70597 18.9371 9.48924 19.1273C9.27251 19.3174 9.00557 19.441 8.72039 19.4834C8.4352 19.5258 8.14385 19.485 7.88121 19.3661C7.61857 19.2472 7.39577 19.0551 7.23949 18.8128C7.0832 18.5705 7.00006 18.2883 7 18Z" fill="#38A34B"/>
<path d="M9 18C9 18.287 8.769 18.5075 8.5 18.5075C8.231 18.5075 8 18.2875 8 18C8 17.713 8.231 17.4925 8.5 17.4925C8.769 17.4925 9 17.7125 9 18Z" fill="#38A34B"/>
</svg>
