<svg width="20" height="20" viewBox="0 0 20 20" fill="none" xmlns="http://www.w3.org/2000/svg">
<path d="M16.25 14.9997C14.1825 14.9997 12.5 13.3172 12.5 11.2497C12.5 9.18217 14.1825 7.49967 16.25 7.49967H18.3333V5.83301C18.3333 4.91384 17.5858 4.16634 16.6667 4.16634H15.8333V2.49967C15.8333 1.58051 15.0858 0.833008 14.1667 0.833008H2.5C1.26417 0.833008 0.2425 1.73634 0.0425 2.91551C0.0241667 2.98384 0 3.05051 0 3.12467V15.833C0 17.2113 1.12167 18.333 2.5 18.333H16.6667C17.5858 18.333 18.3333 17.5855 18.3333 16.6663V14.9997H16.25ZM1.66667 3.33301C1.66667 2.87384 2.04 2.49967 2.5 2.49967H14.1667V4.16634H2.5C2.04 4.16634 1.66667 3.79217 1.66667 3.33301Z" fill="white"/>
<path d="M19.375 8.75H16.25C14.8717 8.75 13.75 9.87167 13.75 11.25C13.75 12.6283 14.8717 13.75 16.25 13.75H19.375C19.72 13.75 20 13.47 20 13.125V9.375C20 9.03 19.72 8.75 19.375 8.75ZM16.25 12.0833C15.79 12.0833 15.4167 11.71 15.4167 11.25C15.4167 10.79 15.79 10.4167 16.25 10.4167C16.71 10.4167 17.0833 10.79 17.0833 11.25C17.0833 11.71 16.71 12.0833 16.25 12.0833Z" fill="white"/>
</svg>
