<svg width="16" height="16" viewBox="0 0 16 16" fill="none" xmlns="http://www.w3.org/2000/svg">
<g clip-path="url(#clip0_1049_8535)">
<path fill-rule="evenodd" clip-rule="evenodd" d="M1.83423 3.99967C1.83423 2.80306 2.80428 1.83301 4.0009 1.83301H10.0009C10.277 1.83301 10.5009 1.60915 10.5009 1.33301C10.5009 1.05687 10.277 0.833008 10.0009 0.833008H4.0009C2.25199 0.833008 0.834229 2.25077 0.834229 3.99967V11.9997C0.834229 13.7486 2.25199 15.1663 4.0009 15.1663H12.0009C13.7498 15.1663 15.1676 13.7486 15.1676 11.9997V5.99967C15.1676 5.72353 14.9437 5.49967 14.6676 5.49967C14.3914 5.49967 14.1676 5.72353 14.1676 5.99967V9.00574C14.1375 8.98166 14.1062 8.95878 14.0738 8.93719L12.4865 7.87899C11.4289 7.17389 10.0206 7.31334 9.12172 8.21218L6.88007 10.4538C5.98123 11.3527 4.57291 11.4921 3.51525 10.787L1.83423 9.66634V3.99967ZM7.3339 5.66635C7.3339 6.58683 6.58771 7.33302 5.66724 7.33302C4.74676 7.33302 4.00057 6.58683 4.00057 5.66635C4.00057 4.74588 4.74676 3.99968 5.66724 3.99968C6.58771 3.99968 7.3339 4.74588 7.3339 5.66635ZM12.7533 1.62591L10.4726 3.90665C10.3866 3.99262 10.3258 4.10046 10.2967 4.2185L10.0106 5.3795C9.95056 5.62289 10.1706 5.84291 10.414 5.78292L11.575 5.49675C11.693 5.46766 11.8009 5.40683 11.8868 5.32086L14.1676 3.04012C14.5581 2.6496 14.5581 2.01644 14.1676 1.62591C13.777 1.23539 13.1439 1.23539 12.7533 1.62591Z" fill="#37BD6B"/>
</g>
<defs>
<clipPath id="clip0_1049_8535">
<rect width="16" height="16" fill="white"/>
</clipPath>
</defs>
</svg>
