<svg width="24" height="24" viewBox="0 0 24 24" fill="none" xmlns="http://www.w3.org/2000/svg">
    <path fill-rule="evenodd" clip-rule="evenodd"
        d="M6.47458 2.71551C8.16252 1.59021 10.3797 2.62186 10.7085 4.51661H14C15.5188 4.51661 16.75 5.74783 16.75 7.26661C16.75 7.68083 16.4142 8.01661 16 8.01661C15.5858 8.01661 15.25 7.68083 15.25 7.26661C15.25 6.57626 14.6904 6.01661 14 6.01661H10.75V18.5166H14C14.6904 18.5166 15.25 17.957 15.25 17.2666C15.25 16.8524 15.5858 16.5166 16 16.5166C16.4142 16.5166 16.75 16.8524 16.75 17.2666C16.75 18.7854 15.5188 20.0166 14 20.0166H10.7085C10.3797 21.9114 8.16252 22.943 6.47458 21.8177L4.47457 20.4844C3.70953 19.9744 3.25 19.1157 3.25 18.1962V6.33698C3.25 5.41751 3.70953 4.55887 4.47457 4.04884L6.47458 2.71551ZM17.4697 14.5306C17.1768 14.2377 17.1768 13.7628 17.4697 13.4699L18.1893 12.7502L13 12.7502C12.5858 12.7502 12.25 12.4145 12.25 12.0002C12.25 11.586 12.5858 11.2502 13 11.2502L18.1893 11.2502L17.4697 10.5306C17.1768 10.2377 17.1768 9.76281 17.4697 9.46991C17.7626 9.17702 18.2374 9.17702 18.5303 9.46991L19.8232 10.7628C20.5066 11.4462 20.5066 12.5543 19.8232 13.2377L18.5303 14.5306C18.2374 14.8235 17.7626 14.8235 17.4697 14.5306Z"
        fill="#EB5252" />
</svg>
