<svg width="18" height="18" viewBox="0 0 18 18" fill="none" xmlns="http://www.w3.org/2000/svg">
<g clip-path="url(#clip0_13_678)">
<path d="M15.4526 4.67999H13.68V2.79863C13.68 1.45367 12.6187 0.359985 11.2702 0.359985H6.7302C5.38092 0.359985 4.32 1.45367 4.32 2.79863V4.67999H2.547C1.33884 4.67999 0.360001 5.61275 0.360001 6.81731V15.0998C0.360001 16.304 1.33884 17.28 2.547 17.28H15.4526C16.6604 17.28 17.64 16.304 17.64 15.0995V6.81731C17.64 5.61275 16.6604 4.67999 15.4526 4.67999ZM5.76 2.79863C5.76 2.29499 6.22512 1.79999 6.7302 1.79999H11.2702C11.7738 1.79999 12.24 2.29499 12.24 2.79863V4.67999H5.76V2.79863ZM12.96 12.6H10.44V15.12H7.56V12.6H5.04V9.71999H7.56V7.19999H10.44V9.71999H12.96V12.6Z" fill="#8B8B8B"/>
</g>
<defs>
<clipPath id="clip0_13_678">
<rect width="18" height="18" fill="white"/>
</clipPath>
</defs>
</svg>
