<svg width="195" height="163" viewBox="0 0 195 163" fill="none" xmlns="http://www.w3.org/2000/svg">
<g clip-path="url(#clip0_7603_21030)">
<path d="M115.137 138.202L195 152.463C195 152.463 174.849 172.408 94.0834 156.936C94.0834 156.916 73.2557 130.732 115.137 138.202Z" fill="url(#paint0_linear_7603_21030)"/>
<path d="M89.9589 40.0752C89.9589 40.0752 106.334 48.6525 96.1969 75.4924C93.8577 81.6689 66.238 132.743 81.1559 149.795C83.7824 152.791 102.209 169.514 115.137 138.201L158.454 145.896C158.454 145.896 155.109 142.551 160.568 127.079C166.026 111.587 172.264 97.4487 171.813 87.3119C171.361 77.1751 165.349 73.8303 161.224 71.4911C157.12 69.1518 89.9589 40.0752 89.9589 40.0752Z" fill="url(#paint1_linear_7603_21030)"/>
<path d="M105 83.7623L153.468 105.719L103.194 88.2767C101.922 87.8458 101.245 86.4504 101.696 85.1782C102.168 83.8444 103.707 83.1672 105 83.7623Z" fill="url(#paint2_linear_7603_21030)"/>
<path d="M98.3515 100.178L156.587 119.323L96.833 105.574C95.3351 105.225 94.3912 103.727 94.74 102.209C95.0888 100.629 96.792 99.6646 98.3515 100.178Z" fill="url(#paint3_linear_7603_21030)"/>
<path d="M98.7824 119.199L150.698 130.875L97.9411 123.98C96.6073 123.816 95.6634 122.585 95.848 121.251C96.0122 119.856 97.4075 118.891 98.7824 119.199Z" fill="url(#paint4_linear_7603_21030)"/>
<path d="M56.3064 66.6688L0 60.1846C0 60.1846 9.50068 77.5649 66.6484 83.4335C66.6484 83.4335 85.855 70.0751 56.3064 66.6688Z" fill="url(#paint5_linear_7603_21030)"/>
<path d="M92.8523 6.05371C92.8523 6.05371 80.171 8.51609 81.5664 28.5024C81.8947 33.0989 90.1232 72.8253 76.7237 81.2384C74.3639 82.7158 58.6868 90.2056 56.3065 66.6693L25.7729 63.1194C25.7729 63.1194 28.6868 61.5599 28.1327 50.0893C27.5787 38.6392 26.2449 27.9073 28.5842 21.2179C30.9234 14.5284 35.6225 13.5024 38.8441 12.7637C42.0657 12.025 92.8523 6.05371 92.8523 6.05371Z" fill="url(#paint6_linear_7603_21030)"/>
<path d="M74.0151 32.2782L37.1615 37.244L74.3024 35.664C75.2463 35.623 75.9645 34.8227 75.9235 33.8993C75.903 32.8938 75.0001 32.1346 74.0151 32.2782Z" fill="url(#paint7_linear_7603_21030)"/>
<path d="M75.1846 44.5892L32.3597 45.7178L75.1026 48.5085C76.1901 48.57 77.1135 47.7698 77.1751 46.6822C77.2571 45.5331 76.3132 44.5687 75.1846 44.5892Z" fill="url(#paint8_linear_7603_21030)"/>
<path d="M71.0602 57.23L33.9808 54.624L70.6703 60.5953C71.5937 60.7389 72.476 60.1233 72.6197 59.1999C72.7838 58.2355 72.0656 57.3121 71.0602 57.23Z" fill="url(#paint9_linear_7603_21030)"/>
<path d="M175.506 76.3134C175.506 72.6609 172.551 69.706 168.899 69.706C172.551 69.706 175.506 66.7512 175.506 63.0986C175.506 66.7512 178.461 69.706 182.114 69.706C178.461 69.7265 175.506 72.6814 175.506 76.3134Z" fill="url(#paint10_linear_7603_21030)"/>
<path d="M188.741 66.0532C188.741 64.4322 187.428 63.1189 185.807 63.1189C187.428 63.1189 188.741 61.8056 188.741 60.1846C188.741 61.8056 190.055 63.1189 191.676 63.1189C190.055 63.1189 188.741 64.4322 188.741 66.0532Z" fill="url(#paint11_linear_7603_21030)"/>
<path d="M24.0288 16.539C24.0288 12.8865 21.0739 9.93161 17.4214 9.93161C21.0739 9.93161 24.0288 6.97675 24.0288 3.32422C24.0288 6.97675 26.9836 9.93161 30.6362 9.93161C26.9836 9.95213 24.0288 12.907 24.0288 16.539Z" fill="url(#paint12_linear_7603_21030)"/>
<path d="M14.4871 5.86867C14.4871 4.24761 13.1738 2.93434 11.5527 2.93434C13.1738 2.93434 14.4871 1.62107 14.4871 0C14.4871 1.62107 15.8003 2.93434 17.4214 2.93434C15.8003 2.93434 14.4871 4.24761 14.4871 5.86867Z" fill="url(#paint13_linear_7603_21030)"/>
</g>
<defs>
<linearGradient id="paint0_linear_7603_21030" x1="88.9" y1="149.834" x2="194.993" y2="149.834" gradientUnits="userSpaceOnUse">
<stop stop-color="#848E9F"/>
<stop offset="1" stop-color="#AEB4BF"/>
</linearGradient>
<linearGradient id="paint1_linear_7603_21030" x1="76.7569" y1="98.4981" x2="171.848" y2="98.4981" gradientUnits="userSpaceOnUse">
<stop stop-color="#DDDFE3"/>
<stop offset="1" stop-color="#E9EAEC"/>
</linearGradient>
<linearGradient id="paint2_linear_7603_21030" x1="101.025" y1="92.2742" x2="154.231" y2="96.7863" gradientUnits="userSpaceOnUse">
<stop stop-color="#A3AAB6"/>
<stop offset="1" stop-color="#808A9D"/>
</linearGradient>
<linearGradient id="paint3_linear_7603_21030" x1="94.326" y1="107.199" x2="157.141" y2="111.975" gradientUnits="userSpaceOnUse">
<stop stop-color="#A3AAB6"/>
<stop offset="1" stop-color="#808A9D"/>
</linearGradient>
<linearGradient id="paint4_linear_7603_21030" x1="95.8161" y1="125.013" x2="150.693" y2="125.013" gradientUnits="userSpaceOnUse">
<stop stop-color="#A3AAB6"/>
<stop offset="1" stop-color="#808A9D"/>
</linearGradient>
<linearGradient id="paint5_linear_7603_21030" x1="71.5368" y1="79.7219" x2="0.526726" y2="58.4314" gradientUnits="userSpaceOnUse">
<stop stop-color="#848E9F"/>
<stop offset="1" stop-color="#AEB4BF"/>
</linearGradient>
<linearGradient id="paint6_linear_7603_21030" x1="89.9662" y1="47.7997" x2="26.3202" y2="28.7172" gradientUnits="userSpaceOnUse">
<stop stop-color="#DDDFE3"/>
<stop offset="1" stop-color="#E9EAEC"/>
</linearGradient>
<linearGradient id="paint7_linear_7603_21030" x1="74.9723" y1="38.7634" x2="38.4547" y2="31.1069" gradientUnits="userSpaceOnUse">
<stop stop-color="#A3AAB6"/>
<stop offset="1" stop-color="#808A9D"/>
</linearGradient>
<linearGradient id="paint8_linear_7603_21030" x1="76.4603" y1="50.0981" x2="33.4596" y2="40.6872" gradientUnits="userSpaceOnUse">
<stop stop-color="#A3AAB6"/>
<stop offset="1" stop-color="#808A9D"/>
</linearGradient>
<linearGradient id="paint9_linear_7603_21030" x1="71.8884" y1="61.7224" x2="35.1583" y2="50.7099" gradientUnits="userSpaceOnUse">
<stop stop-color="#A3AAB6"/>
<stop offset="1" stop-color="#808A9D"/>
</linearGradient>
<linearGradient id="paint10_linear_7603_21030" x1="168.914" y1="69.7224" x2="182.116" y2="69.7224" gradientUnits="userSpaceOnUse">
<stop stop-color="#DDDFE3"/>
<stop offset="1" stop-color="#E9EAEC"/>
</linearGradient>
<linearGradient id="paint11_linear_7603_21030" x1="185.812" y1="63.1211" x2="191.677" y2="63.1211" gradientUnits="userSpaceOnUse">
<stop stop-color="#DDDFE3"/>
<stop offset="1" stop-color="#E9EAEC"/>
</linearGradient>
<linearGradient id="paint12_linear_7603_21030" x1="17.4221" y1="9.94416" x2="30.6241" y2="9.94416" gradientUnits="userSpaceOnUse">
<stop stop-color="#DDDFE3"/>
<stop offset="1" stop-color="#E9EAEC"/>
</linearGradient>
<linearGradient id="paint13_linear_7603_21030" x1="11.5564" y1="2.93286" x2="17.4221" y2="2.93286" gradientUnits="userSpaceOnUse">
<stop stop-color="#DDDFE3"/>
<stop offset="1" stop-color="#E9EAEC"/>
</linearGradient>
<clipPath id="clip0_7603_21030">
<rect width="195" height="162.804" fill="white"/>
</clipPath>
</defs>
</svg>
