<svg width="26" height="26" viewBox="0 0 26 26" fill="none" xmlns="http://www.w3.org/2000/svg">
    <path d="M19.7582 9.72344L19.013 9.80802L19.7582 9.72344ZM20.2426 13.9919L20.9879 13.9073L20.2426 13.9919ZM5.75475 13.9919L5.00953 13.9073L5.75475 13.9919ZM6.2392 9.72344L6.98442 9.80802L6.2392 9.72344ZM4.81713 16.1118L4.24602 15.6256H4.24602L4.81713 16.1118ZM21.1803 16.1118L20.6092 16.5979V16.5979L21.1803 16.1118ZM15.4578 4.73846H14.7078C14.7078 5.05904 14.9116 5.34418 15.2149 5.44802L15.4578 4.73846ZM10.5396 4.73846L10.7825 5.44802C11.0858 5.34418 11.2896 5.05904 11.2896 4.73846H10.5396ZM16.951 21.9302C17.0964 21.5423 16.8998 21.1101 16.5119 20.9647C16.124 20.8193 15.6918 21.0159 15.5464 21.4038L16.951 21.9302ZM10.451 21.4038C10.3056 21.0159 9.87336 20.8193 9.48549 20.9647C9.09762 21.1101 8.90104 21.5423 9.0464 21.9302L10.451 21.4038ZM19.2573 18.7503H6.74008V20.2503H19.2573V18.7503ZM19.013 9.80802L19.4974 14.0764L20.9879 13.9073L20.5034 9.63886L19.013 9.80802ZM6.49996 14.0764L6.98442 9.80802L5.49399 9.63886L5.00953 13.9073L6.49996 14.0764ZM5.38824 16.5979C6.00603 15.8722 6.39504 15.0009 6.49996 14.0764L5.00953 13.9073C4.93995 14.5203 4.68049 15.1152 4.24602 15.6256L5.38824 16.5979ZM19.4974 14.0764C19.6024 15.0009 19.9914 15.8722 20.6092 16.5979L21.7514 15.6256C21.3169 15.1152 21.0574 14.5203 20.9879 13.9073L19.4974 14.0764ZM6.74008 18.7503C6.00886 18.7503 5.48567 18.3881 5.24245 17.9595C5.00662 17.5439 5.01077 17.0414 5.38824 16.5979L4.24602 15.6256C3.43504 16.5784 3.4103 17.7701 3.93787 18.6998C4.45804 19.6164 5.49056 20.2503 6.74008 20.2503V18.7503ZM19.2573 20.2503C20.5068 20.2503 21.5394 19.6164 22.0595 18.6998C22.5871 17.7701 22.5624 16.5784 21.7514 15.6256L20.6092 16.5979C20.9866 17.0414 20.9908 17.5439 20.7549 17.9595C20.5117 18.3881 19.9885 18.7503 19.2573 18.7503V20.2503ZM16.2078 4.73846V4.6261H14.7078V4.73846H16.2078ZM20.5034 9.63886C20.2041 7.00147 18.247 4.90069 15.7008 4.0289L15.2149 5.44802C17.3105 6.16555 18.7899 7.84222 19.013 9.80802L20.5034 9.63886ZM11.2896 4.73846V4.6261H9.78959V4.73846H11.2896ZM6.98442 9.80802C7.20753 7.84222 8.68688 6.16555 10.7825 5.44802L10.2966 4.0289C7.75044 4.90069 5.79332 7.00147 5.49399 9.63886L6.98442 9.80802ZM12.9987 2.91699C13.9426 2.91699 14.7078 3.68219 14.7078 4.6261H16.2078C16.2078 2.85376 14.771 1.41699 12.9987 1.41699V2.91699ZM12.9987 1.41699C11.2264 1.41699 9.78959 2.85376 9.78959 4.6261H11.2896C11.2896 3.68219 12.0548 2.91699 12.9987 2.91699V1.41699ZM15.5464 21.4038C15.1873 22.362 14.1987 23.0837 12.9987 23.0837V24.5837C14.7996 24.5837 16.364 23.4966 16.951 21.9302L15.5464 21.4038ZM12.9987 23.0837C11.7987 23.0837 10.8101 22.362 10.451 21.4038L9.0464 21.9302C9.63344 23.4966 11.1978 24.5837 12.9987 24.5837V23.0837Z" fill="white"/>
</svg>
