<svg width="28" height="28" viewBox="0 0 28 28" fill="none" xmlns="http://www.w3.org/2000/svg">
<path d="M17.5001 11.9583C13.8006 11.9583 10.7917 14.9683 10.7917 18.6667C10.7917 22.365 13.8006 25.375 17.5001 25.375C21.1996 25.375 24.2084 22.365 24.2084 18.6667C24.2084 14.9683 21.1996 11.9583 17.5001 11.9583ZM19.7809 19.5417H17.5001C17.0171 19.5417 16.6251 19.1497 16.6251 18.6667V16.2925C16.6251 15.8095 17.0171 15.4175 17.5001 15.4175C17.9831 15.4175 18.3751 15.8095 18.3751 16.2925V17.7917H19.7809C20.2639 17.7917 20.6559 18.1837 20.6559 18.6667C20.6559 19.1497 20.2639 19.5417 19.7809 19.5417ZM18.6667 2.625H7.00008C5.22675 2.625 3.79175 4.06 3.79175 5.83333V21C3.79175 22.7733 5.22675 24.2083 7.00008 24.2083H11.1301C9.82341 22.7267 9.04175 20.79 9.04175 18.6667C9.04175 14 12.8334 10.2083 17.5001 10.2083C19.1101 10.2083 20.6034 10.6517 21.8751 11.445V5.83333C21.8751 4.06 20.4401 2.625 18.6667 2.625ZM9.33341 14.875H8.16675C7.68841 14.875 7.29175 14.4783 7.29175 14C7.29175 13.5217 7.68841 13.125 8.16675 13.125H9.33341C9.81175 13.125 10.2084 13.5217 10.2084 14C10.2084 14.4783 9.81175 14.875 9.33341 14.875ZM12.8334 11.375H8.16675C7.68841 11.375 7.29175 10.9783 7.29175 10.5C7.29175 10.0217 7.68841 9.625 8.16675 9.625H12.8334C13.3117 9.625 13.7084 10.0217 13.7084 10.5C13.7084 10.9783 13.3117 11.375 12.8334 11.375ZM17.5001 7.875H8.16675C7.68841 7.875 7.29175 7.47833 7.29175 7C7.29175 6.52167 7.68841 6.125 8.16675 6.125H17.5001C17.9784 6.125 18.3751 6.52167 18.3751 7C18.3751 7.47833 17.9784 7.875 17.5001 7.875Z" fill="#6A6D7C"/>
</svg>
