<svg width="20" height="20" viewBox="0 0 20 20" fill="none" xmlns="http://www.w3.org/2000/svg">
<path fill-rule="evenodd" clip-rule="evenodd" d="M7.29175 3.125C7.29175 2.08947 8.13121 1.25 9.16675 1.25H10.8334C11.8689 1.25 12.7084 2.08947 12.7084 3.125V3.95833H7.29175V3.125ZM6.04175 3.95833V3.125C6.04175 1.39911 7.44086 0 9.16675 0H10.8334C12.5593 0 13.9584 1.39911 13.9584 3.125V3.95833H15.0001C16.841 3.95833 18.3334 5.45072 18.3334 7.29167V8.26907C17.7552 8.54762 17.0296 8.88103 16.2254 9.21415C14.728 9.83436 13.0115 10.4305 11.4811 10.6932C11.2039 10.1576 10.6447 9.79167 10.0001 9.79167C9.35544 9.79167 8.79629 10.1576 8.51905 10.6932C6.98861 10.4305 5.27213 9.83437 3.77478 9.21415C2.97058 8.88103 2.24495 8.54763 1.66675 8.26909V7.29167C1.66675 5.45072 3.15913 3.95833 5.00008 3.95833H6.04175ZM16.7037 10.369C17.2977 10.1229 17.8495 9.87705 18.3334 9.65201V13.9583C18.3334 15.7993 16.841 17.2917 15.0001 17.2917H5.00008C3.15913 17.2917 1.66675 15.7993 1.66675 13.9583V9.65202C2.15065 9.87706 2.70242 10.123 3.29642 10.369C4.82356 11.0016 6.68474 11.6589 8.40435 11.9409C8.61128 12.6261 9.24741 13.125 10.0001 13.125C10.7528 13.125 11.3889 12.6261 11.5958 11.9409C13.3154 11.6589 15.1766 11.0015 16.7037 10.369Z" fill="#37BD6B"/>
</svg>
