<svg width="20" height="20" viewBox="0 0 20 20" fill="none" xmlns="http://www.w3.org/2000/svg">
<g clip-path="url(#clip0_7905_48316)">
<path d="M19.2897 2.75895C18.8599 2.71977 18.4799 3.03637 18.4407 3.46605L18.3372 4.60156C16.581 1.84352 13.5324 0 10 0C6.19997 0 2.8511 2.16883 1.18868 5.42398C0.99243 5.80824 1.14485 6.27883 1.52911 6.47508C1.91345 6.67133 2.38395 6.51895 2.5802 6.13465C3.98712 3.3798 6.81239 1.5625 10 1.5625C12.9054 1.5625 15.5273 3.07543 17.0294 5.44563L15.9155 4.65004C15.5643 4.3993 15.0764 4.48063 14.8257 4.83172C14.5749 5.18285 14.6563 5.67074 15.0074 5.92152L18.3853 8.33406C18.8804 8.68699 19.5632 8.36391 19.6174 7.76926L19.9967 3.60793C20.0359 3.1782 19.7193 2.79813 19.2897 2.75895Z" fill="#37BD6B"/>
<path d="M18.4709 13.5244C18.0866 13.3282 17.616 13.4806 17.4198 13.8649C16.0128 16.6197 13.1876 18.437 9.99996 18.437C7.09461 18.437 4.47265 16.9241 2.97054 14.5539L4.08449 15.3495C4.43562 15.6002 4.92351 15.5189 5.17429 15.1678C5.42503 14.8167 5.34371 14.3288 4.99261 14.078L1.61468 11.6654C1.12566 11.3161 0.437301 11.6295 0.382614 12.2302L0.00327764 16.3916C-0.035902 16.8213 0.2807 17.2013 0.710348 17.2405C1.14058 17.2796 1.52015 16.9627 1.55929 16.5334L1.66281 15.3979C3.41898 18.156 6.46757 19.9995 9.99996 19.9995C13.8 19.9995 17.1489 17.8307 18.8113 14.5755C19.0075 14.1913 18.8551 13.7207 18.4709 13.5244Z" fill="#37BD6B"/>
</g>
<defs>
<clipPath id="clip0_7905_48316">
<rect width="20" height="20" fill="white"/>
</clipPath>
</defs>
</svg>
