<svg width="24" height="24" viewBox="0 0 24 24" fill="none" xmlns="http://www.w3.org/2000/svg">
<path fill-rule="evenodd" clip-rule="evenodd" d="M15.7123 16.7734C16.0052 17.0663 16.4801 17.0663 16.7729 16.7734C17.0658 16.4805 17.0658 16.0057 16.7729 15.7128L13.0607 12.0005L16.7729 8.28819C17.0658 7.99529 17.0658 7.52042 16.7729 7.22753C16.48 6.93463 16.0052 6.93463 15.7123 7.22753L12 10.9398L8.28766 7.22748C7.99477 6.93459 7.5199 6.93459 7.227 7.22748C6.93411 7.52038 6.93411 7.99525 7.227 8.28814L10.9393 12.0005L7.22699 15.7128C6.9341 16.0057 6.9341 16.4806 7.22699 16.7735C7.51989 17.0664 7.99476 17.0664 8.28765 16.7735L12 13.0611L15.7123 16.7734Z" fill="#6A6D7C"/>
</svg>
