<svg width="18" height="18" viewBox="0 0 18 18" fill="none" xmlns="http://www.w3.org/2000/svg">
<g clip-path="url(#clip0_7857_34459)">
<path d="M7.92682 0C3.55609 0 0 3.55609 0 7.92682C0 12.2978 3.55609 15.8536 7.92682 15.8536C12.2978 15.8536 15.8536 12.2978 15.8536 7.92682C15.8536 3.55609 12.2978 0 7.92682 0ZM7.92682 14.3903C4.36293 14.3903 1.46341 11.4908 1.46341 7.92686C1.46341 4.36296 4.36293 1.46341 7.92682 1.46341C11.4907 1.46341 14.3902 4.36293 14.3902 7.92682C14.3902 11.4907 11.4907 14.3903 7.92682 14.3903Z" fill="#6A6D7C"/>
<path d="M17.7856 16.7513L13.5905 12.5562C13.3046 12.2703 12.8417 12.2703 12.5558 12.5562C12.27 12.8418 12.27 13.3052 12.5558 13.5908L16.7509 17.786C16.8939 17.9289 17.081 18.0003 17.2683 18.0003C17.4553 18.0003 17.6427 17.9289 17.7856 17.786C18.0715 17.5004 18.0715 17.0369 17.7856 16.7513Z" fill="#6A6D7C"/>
</g>
<defs>
<clipPath id="clip0_7857_34459">
<rect width="18" height="18" fill="white"/>
</clipPath>
</defs>
</svg>
