<svg width="24" height="24" viewBox="0 0 24 24" fill="none" xmlns="http://www.w3.org/2000/svg">
<path fill-rule="evenodd" clip-rule="evenodd" d="M5.88265 21.7388L6.11638 21.8661C8.26237 23.0347 9.33536 23.6191 10.4731 23.848C11.4799 24.0507 12.5191 24.0507 13.5259 23.848C14.6637 23.6191 15.7366 23.0347 17.8826 21.8661L18.1164 21.7388C20.1154 20.6502 21.1149 20.1059 21.8669 19.3599C22.7234 18.5103 23.3516 17.4703 23.6966 16.331C23.9995 15.3307 23.9995 14.2205 23.9995 12C23.9995 9.77955 23.9995 8.66928 23.6966 7.66899C23.3516 6.52973 22.7234 5.48975 21.8669 4.64013C21.1149 3.89414 20.1154 3.34983 18.1164 2.26122L17.8826 2.13393C15.7367 0.965278 14.6637 0.380942 13.5259 0.151974C12.5191 -0.0506579 11.4799 -0.0506579 10.4731 0.151974C9.33536 0.380942 8.26237 0.965273 6.11638 2.13393L5.88265 2.26122C3.88365 3.34983 2.88414 3.89414 2.13212 4.64013C1.27562 5.48975 0.647376 6.52973 0.302403 7.66899C-0.000488281 8.66928 -0.000488281 9.77952 -0.000488281 12C-0.000488281 14.2205 -0.000488281 15.3307 0.302404 16.331C0.647377 17.4703 1.27563 18.5103 2.13212 19.3599C2.88414 20.1059 3.88367 20.6502 5.88265 21.7388ZM11.9995 7.49812C9.43139 7.49812 7.34951 9.51367 7.34951 12C7.34951 14.4863 9.43139 16.5018 11.9995 16.5018C14.5676 16.5018 16.6495 14.4863 16.6495 12C16.6495 9.51367 14.5676 7.49812 11.9995 7.49812ZM9.14951 12C9.14951 10.4761 10.4255 9.24077 11.9995 9.24077C13.5735 9.24077 14.8495 10.4761 14.8495 12C14.8495 13.5238 13.5735 14.7592 11.9995 14.7592C10.4255 14.7592 9.14951 13.5238 9.14951 12Z" fill="#37BD6B"/>
</svg>
