<svg width="34" height="25" viewBox="0 0 34 25" fill="none" xmlns="http://www.w3.org/2000/svg">
<rect x="0.718999" y="0.700531" width="31.6131" height="23.1679" rx="3.3" transform="rotate(0.043515 0.718999 0.700531)" fill="url(#paint0_linear_1148_10269)" stroke="#595959" stroke-width="1.4"/>
<path fill-rule="evenodd" clip-rule="evenodd" d="M21.1619 5.40903C20.0354 3.20733 18.2643 1.47784 17.0989 0.801662C17.0218 0.75805 16.9656 0.686323 16.9427 0.602261C16.9198 0.5182 16.932 0.428688 16.9766 0.353419C17.0213 0.27815 17.0947 0.223288 17.1808 0.200903C17.2668 0.178518 17.3585 0.190444 17.4355 0.234056C18.9622 1.11003 20.7362 3.11885 21.7529 5.10253C21.7774 5.14052 21.7931 5.1833 21.7988 5.22784C21.8045 5.27238 21.8002 5.3176 21.786 5.36032C21.7719 5.40304 21.7484 5.44222 21.7171 5.47509C21.6858 5.50796 21.6475 5.53372 21.6049 5.55057C21.5595 5.57446 21.5087 5.58708 21.4572 5.58729C21.3959 5.5873 21.3357 5.57063 21.2836 5.53915C21.2314 5.50766 21.1893 5.46261 21.1619 5.40903ZM10.9407 15.9328C10.9604 18.984 13.8959 22.6236 15.9189 23.8007C15.9579 23.8207 15.9922 23.8484 16.0196 23.8822C16.047 23.9159 16.0667 23.9549 16.0777 23.9966C16.0886 24.0383 16.0904 24.0817 16.0831 24.1241C16.0757 24.1666 16.0592 24.207 16.0348 24.2428C16.0051 24.2911 15.9632 24.3312 15.9131 24.3591C15.863 24.387 15.8064 24.4019 15.7487 24.4022C15.6899 24.4024 15.6322 24.3864 15.5822 24.3561C13.4242 23.1113 10.4729 19.4747 10.2868 16.2209L0.337325 16.2133C0.254969 16.2054 0.178571 16.1678 0.123012 16.1079C0.0674534 16.048 0.0367109 15.9701 0.0367722 15.8893C0.0368336 15.8084 0.0676945 15.7305 0.123344 15.6707C0.178994 15.6109 0.255449 15.5734 0.337817 15.5656L10.3502 15.5732C10.9789 13.427 10.9806 11.1517 10.3551 9.00447L0.342806 8.99687C0.255292 8.9968 0.171388 8.96278 0.109551 8.90229C0.0477153 8.8418 0.0130126 8.7598 0.0130775 8.67432C0.0131424 8.58884 0.0479697 8.50689 0.109898 8.44649C0.171826 8.3861 0.255781 8.3522 0.343296 8.35227L10.2928 8.35983C10.4838 5.094 13.4532 1.47422 15.6005 0.232689C15.6777 0.189194 15.7693 0.177408 15.8553 0.199924C15.9414 0.222439 16.0147 0.277412 16.0593 0.352749C16.1038 0.428086 16.1159 0.517616 16.0928 0.601643C16.0698 0.68567 16.0135 0.757311 15.9364 0.800806C13.9116 1.95955 10.9705 5.59777 10.9462 8.65193C11.6642 11.0285 11.6623 13.5573 10.9407 15.9328ZM32.6906 15.5902L22.6594 15.5826C22.0339 13.4354 22.0357 11.1601 22.6644 9.01385L32.6956 9.02147C32.7831 9.02153 32.867 8.98764 32.929 8.92724C32.9909 8.86685 33.0257 8.7849 33.0258 8.69942C33.0258 8.61394 32.9911 8.53193 32.9293 8.47144C32.8675 8.41095 32.7836 8.37693 32.6961 8.37687L22.4103 8.36905C22.3388 8.3698 22.2694 8.39323 22.2127 8.43582C22.156 8.4784 22.115 8.53784 22.0959 8.60517C21.3634 10.9979 21.3615 13.5475 22.0903 15.9413C22.066 18.9924 19.1249 22.6276 17.1002 23.8017C17.06 23.8204 17.0245 23.8473 16.9958 23.8805C16.9671 23.9137 16.9459 23.9524 16.9337 23.9942C16.9215 24.036 16.9185 24.0798 16.925 24.1228C16.9314 24.1658 16.9471 24.2069 16.971 24.2436C17.0006 24.2919 17.0424 24.332 17.0925 24.36C17.1426 24.388 17.1992 24.4029 17.2568 24.4034C17.3157 24.4036 17.3734 24.3877 17.4234 24.3575C19.5708 23.1313 22.5401 19.4839 22.7312 16.2303L32.6901 16.2379C32.7725 16.2301 32.8489 16.1927 32.9046 16.1329C32.9602 16.073 32.9911 15.9951 32.9911 15.9143C32.9912 15.8335 32.9604 15.7555 32.9049 15.6956C32.8493 15.6357 32.7729 15.5981 32.6906 15.5902ZM16.1883 1.99116C16.2855 1.92782 16.3997 1.89406 16.5166 1.89415C16.6733 1.89427 16.8235 1.95518 16.9342 2.06349C17.0449 2.1718 17.1071 2.31862 17.107 2.47167C17.1069 2.58581 17.0721 2.69735 17.0071 2.7922C16.9422 2.88705 16.8498 2.96094 16.7418 3.00454C16.6339 3.04813 16.5151 3.05947 16.4005 3.03712C16.2859 3.01476 16.1806 2.95972 16.0981 2.87896C16.0155 2.79819 15.9593 2.69532 15.9366 2.58336C15.9139 2.47141 15.9257 2.35538 15.9705 2.24997C16.0153 2.14456 16.0911 2.05449 16.1883 1.99116Z" fill="#666666"/>
<defs>
<linearGradient id="paint0_linear_1148_10269" x1="-3.12457" y1="-4.94507e-07" x2="35.1598" y2="25.3901" gradientUnits="userSpaceOnUse">
<stop stop-color="#FBC926"/>
<stop offset="0.212761" stop-color="#FFFBCC"/>
<stop offset="0.548384" stop-color="#C3922E" stop-opacity="0.8"/>
<stop offset="0.914316" stop-color="#EED688"/>
<stop offset="1" stop-color="#FFFBCC"/>
</linearGradient>
</defs>
</svg>
