<svg width="24" height="24" viewBox="0 0 24 24" fill="none" xmlns="http://www.w3.org/2000/svg">
<path d="M12.9765 3.11361L15.203 7.58789C15.3671 7.91205 15.6801 8.13717 16.0412 8.18719L21.0423 8.91556C21.3343 8.95658 21.5994 9.11066 21.7784 9.34578C21.9555 9.5779 22.0315 9.87205 21.9885 10.1612C21.9535 10.4013 21.8404 10.6234 21.6674 10.7935L18.0436 14.3063C17.7786 14.5514 17.6586 14.9146 17.7226 15.2698L18.6148 20.2083C18.7098 20.8046 18.3147 21.3669 17.7226 21.48C17.4785 21.519 17.2285 21.4779 17.0084 21.3659L12.5475 19.0417C12.2164 18.8746 11.8253 18.8746 11.4942 19.0417L7.03327 21.3659C6.48515 21.657 5.80601 21.4589 5.50094 20.9187C5.38792 20.7036 5.34791 20.4584 5.38492 20.2193L6.27711 15.2798C6.34112 14.9256 6.2201 14.5604 5.95604 14.3153L2.33226 10.8045C1.90117 10.3883 1.88817 9.70296 2.30325 9.27174C2.31226 9.26274 2.32226 9.25274 2.33226 9.24273C2.5043 9.06764 2.73035 8.95658 2.9744 8.92757L7.97547 8.1982C8.33555 8.14717 8.64862 7.92406 8.81365 7.59789L10.9601 3.11361C11.1512 2.72942 11.5472 2.4903 11.9773 2.5003H12.1114C12.4844 2.54533 12.8095 2.77644 12.9765 3.11361Z" fill="#FEAC56"/>
</svg>
