<svg width="21" height="20" viewBox="0 0 21 20" fill="none" xmlns="http://www.w3.org/2000/svg">
    <g opacity="0.35">
        <path d="M8.69596 2.7265C9.36653 1.31382 11.304 1.31382 11.9746 2.7265L13.1335 5.16797C13.3998 5.72895 13.9145 6.11777 14.51 6.20773L17.1014 6.59924C18.6008 6.82577 19.1996 8.74161 18.1146 9.84123L16.2394 11.7416C15.8085 12.1783 15.6119 12.8074 15.7136 13.424L16.1563 16.1074C16.4124 17.6601 14.845 18.8442 13.5038 18.1111L11.186 16.8442C10.6534 16.5531 10.0172 16.5531 9.4846 16.8442L7.16676 18.1111C5.82561 18.8442 4.25814 17.6601 4.51427 16.1074L4.95694 13.424C5.05865 12.8074 4.86205 12.1783 4.43119 11.7416L2.55602 9.84123C1.47101 8.74161 2.06973 6.82577 3.56917 6.59924L6.1606 6.20773C6.75603 6.11777 7.27076 5.72895 7.53704 5.16797L8.69596 2.7265Z" stroke="#6A6D7C" stroke-width="1.5" stroke-linejoin="round"/>
    </g>
</svg>
