<svg width="20" height="20" viewBox="0 0 20 20" fill="none" xmlns="http://www.w3.org/2000/svg">
    <path d="M8.36068 2.7265C9.03125 1.31382 10.9688 1.31382 11.6393 2.7265L12.7982 5.16797C13.0645 5.72895 13.5793 6.11777 14.1747 6.20773L16.7661 6.59924C18.2656 6.82577 18.8643 8.74161 17.7793 9.84123L15.9041 11.7417C15.4732 12.1783 15.2766 12.8074 15.3783 13.424L15.821 16.1074C16.0772 17.6601 14.5097 18.8442 13.1685 18.1111L10.8507 16.8442C10.3181 16.5531 9.68188 16.5531 9.14932 16.8442L6.83147 18.1111C5.49033 18.8442 3.92286 17.6601 4.17899 16.1075L4.62166 13.424C4.72337 12.8074 4.52676 12.1783 4.09591 11.7417L2.22073 9.84123C1.13573 8.74161 1.73445 6.82577 3.23389 6.59924L5.82532 6.20773C6.42075 6.11777 6.93548 5.72895 7.20176 5.16797L8.36068 2.7265Z" fill="#FEAC56"/>
</svg>
