<svg width="20" height="20" viewBox="0 0 20 20" fill="none" xmlns="http://www.w3.org/2000/svg">
<path fill-rule="evenodd" clip-rule="evenodd" d="M7.67287 3.44646C8.41279 3.23719 9.19416 3.125 10.0028 3.125C10.8114 3.125 11.5927 3.23719 12.3327 3.44646C12.6648 3.54041 13.0102 3.3473 13.1042 3.01515C13.1981 2.68301 13.005 2.33759 12.6729 2.24365C11.8233 2.00337 10.9275 1.875 10.0028 1.875C9.078 1.875 8.18219 2.00337 7.33267 2.24365C7.00052 2.33759 6.80742 2.68301 6.90136 3.01515C6.9953 3.3473 7.34072 3.54041 7.67287 3.44646ZM17.0861 11.25C17.0861 15.162 13.9148 18.3333 10.0028 18.3333C6.09075 18.3333 2.91943 15.162 2.91943 11.25C2.91943 7.33798 6.09075 4.16667 10.0028 4.16667C13.9148 4.16667 17.0861 7.33798 17.0861 11.25ZM10.6277 7.50016C10.6277 7.15498 10.3479 6.87516 10.0027 6.87516C9.65757 6.87516 9.37775 7.15498 9.37775 7.50016V10.5841C9.00412 10.8002 8.75275 11.2042 8.75275 11.6668C8.75275 12.3572 9.31239 12.9168 10.0027 12.9168C10.6931 12.9168 11.2527 12.3572 11.2527 11.6668C11.2527 11.2042 11.0014 10.8002 10.6277 10.5841V7.50016Z" fill="#0152BC"/>
</svg>
