<svg width="18" height="18" viewBox="0 0 18 18" fill="none" xmlns="http://www.w3.org/2000/svg">
<path fill-rule="evenodd" clip-rule="evenodd" d="M12.4181 5.6263C12.6259 5.39539 12.6072 5.03972 12.3763 4.8319C12.1454 4.62408 11.7897 4.6428 11.5819 4.87371L7.07069 9.88619L6.35141 9.31077C6.10883 9.1167 5.75485 9.15603 5.56078 9.39861C5.36671 9.6412 5.40604 9.99518 5.64863 10.1892L6.31683 10.7238L5.77872 11.3217C5.44649 11.6909 4.88403 11.7369 4.49623 11.4266L1.85141 9.31077C1.60883 9.1167 1.25485 9.15603 1.06078 9.39861C0.866714 9.6412 0.906045 9.99518 1.14863 10.1892L3.79345 12.3051C4.64661 12.9876 5.88402 12.8864 6.61493 12.0743L7.19679 11.4278L8.29345 12.3051C9.14662 12.9876 10.384 12.8864 11.1149 12.0743L16.9181 5.6263C17.1259 5.39539 17.1072 5.03972 16.8763 4.8319C16.6454 4.62408 16.2897 4.6428 16.0819 4.87371L10.2787 11.3217C9.94649 11.6909 9.38403 11.7369 8.99623 11.4266L7.95065 10.5902L12.4181 5.6263Z" fill="#0152BC"/>
</svg>
